<svg width="30" height="30" viewBox="0 0 30 30" fill="none" xmlns="http://www.w3.org/2000/svg">
<g id="cil:microphone">
<path id="Vector" d="M15 19.2188C16.4913 19.2171 17.9211 18.6239 18.9756 17.5694C20.0302 16.5149 20.6233 15.0851 20.625 13.5938V6.5625C20.625 5.07066 20.0324 3.63992 18.9775 2.58502C17.9226 1.53013 16.4918 0.9375 15 0.9375C13.5082 0.9375 12.0774 1.53013 11.0225 2.58502C9.96763 3.63992 9.375 5.07066 9.375 6.5625V13.5938C9.37665 15.0851 9.96982 16.5149 11.0244 17.5694C12.0789 18.6239 13.5087 19.2171 15 19.2188ZM11.25 6.5625C11.25 5.56794 11.6451 4.61411 12.3483 3.91085C13.0516 3.20759 14.0054 2.8125 15 2.8125C15.9946 2.8125 16.9484 3.20759 17.6517 3.91085C18.3549 4.61411 18.75 5.56794 18.75 6.5625V13.5938C18.75 14.5883 18.3549 15.5421 17.6517 16.2454C16.9484 16.9487 15.9946 17.3438 15 17.3438C14.0054 17.3438 13.0516 16.9487 12.3483 16.2454C11.6451 15.5421 11.25 14.5883 11.25 13.5938V6.5625Z" fill="#999900"/>
<path id="Vector_2" d="M23.4375 10.3125V13.5938C23.4375 18.2462 19.6525 22.0312 15 22.0312C10.3475 22.0312 6.5625 18.2462 6.5625 13.5938V10.3125H4.6875V13.5938C4.6875 18.9637 8.81375 23.3875 14.0625 23.8637V29.0625H15.9375V23.8637C21.1863 23.3875 25.3125 18.9637 25.3125 13.5938V10.3125H23.4375Z" fill="#999900"/>
</g>
</svg>
