<svg width="24" height="24" viewBox="0 0 24 24" fill="none" xmlns="http://www.w3.org/2000/svg">
<path d="M22.7314 8.48731L15.5126 1.26855C15.3222 1.07812 15.0732 0.984375 14.8242 0.984375C14.5751 0.984375 14.3261 1.07812 14.1357 1.26855L9.41597 5.99121C9.05855 5.9502 8.69819 5.93262 8.33784 5.93262C6.19331 5.93262 4.04878 6.63867 2.28804 8.05078C2.18141 8.1364 2.09402 8.24351 2.03155 8.36515C1.96909 8.48679 1.93294 8.62022 1.92548 8.75676C1.91802 8.8933 1.9394 9.02988 1.98824 9.1576C2.03708 9.28532 2.11228 9.40132 2.20894 9.49805L7.53218 14.8213L1.22163 21.126C1.1443 21.2028 1.09658 21.3045 1.08687 21.4131L0.987257 22.5029C0.96089 22.7783 1.18062 23.0127 1.45308 23.0127C1.46773 23.0127 1.48237 23.0127 1.49702 23.0098L2.58687 22.9102C2.69526 22.9014 2.7978 22.8516 2.87398 22.7754L9.18452 16.4648L14.5078 21.7881C14.6982 21.9785 14.9472 22.0723 15.1962 22.0723C15.4804 22.0723 15.7617 21.9492 15.955 21.709C17.6044 19.6494 18.29 17.0713 18.0117 14.5781L22.7314 9.8584C23.1093 9.4834 23.1093 8.86816 22.7314 8.48731ZM16.5175 13.0928L15.7998 13.8105L15.9111 14.8184C16.0857 16.3771 15.7746 17.9518 15.0205 19.3271L4.67573 8.97656C5.05366 8.76855 5.44624 8.59277 5.8564 8.45215C6.65327 8.17676 7.48823 8.03906 8.33784 8.03906C8.61909 8.03906 8.90327 8.05371 9.18452 8.08594L10.1923 8.19727L10.9101 7.47949L14.8271 3.5625L20.4375 9.17285L16.5175 13.0928Z" fill="#999900"/>
</svg>
