<svg width="37" height="36" viewBox="0 0 37 36" fill="none" xmlns="http://www.w3.org/2000/svg">
<path d="M31.0151 24.7099C29.2095 22.5 27.9347 21.375 27.9347 15.2824C27.9347 9.7031 25.0856 7.71536 22.7407 6.74997C22.4292 6.622 22.136 6.32809 22.0411 6.00817C21.6298 4.60825 20.4766 3.37497 18.9438 3.37497C17.411 3.37497 16.2572 4.60895 15.8501 6.00958C15.7552 6.33302 15.462 6.622 15.1505 6.74997C12.8027 7.71677 9.95648 9.69747 9.95648 15.2824C9.95297 21.375 8.6782 22.5 6.87258 24.7099C6.12445 25.6254 6.77977 27 8.08828 27H29.8064C31.1079 27 31.759 25.6211 31.0151 24.7099Z" stroke="#999900" stroke-width="2.25" stroke-linecap="round" stroke-linejoin="round"/>
<path d="M23.4438 27V28.125C23.4438 29.3185 22.9697 30.4631 22.1258 31.307C21.2819 32.1509 20.1373 32.625 18.9438 32.625C17.7504 32.625 16.6058 32.1509 15.7619 31.307C14.918 30.4631 14.4438 29.3185 14.4438 28.125V27" stroke="#999900" stroke-width="2.25" stroke-linecap="round" stroke-linejoin="round"/>
</svg>
