<svg width="24" height="24" viewBox="0 0 24 24" fill="none" xmlns="http://www.w3.org/2000/svg">
<path d="M12 0C9.82812 0 7.82031 0.535156 5.97656 1.60547C4.13281 2.67578 2.67578 4.13281 1.60547 5.97656C0.535156 7.82031 0 9.82812 0 12C0 14.1719 0.535156 16.1797 1.60547 18.0234C2.67578 19.8672 4.13281 21.3242 5.97656 22.3945C7.82031 23.4648 9.82812 24 12 24C14.1719 24 16.1797 23.4648 18.0234 22.3945C19.8672 21.3242 21.3242 19.8672 22.3945 18.0234C23.4648 16.1797 24 14.1719 24 12C24 9.82812 23.4648 7.82031 22.3945 5.97656C21.3242 4.13281 19.8672 2.67578 18.0234 1.60547C16.1797 0.535156 14.1719 0 12 0ZM12 22.5234C10.8594 22.5234 9.75391 22.3477 8.68359 21.9961C7.61328 21.6445 6.64844 21.1406 5.78906 20.4844C4.92969 19.8281 4.17578 19.0703 3.52734 18.2109C2.87891 17.3516 2.37891 16.3867 2.02734 15.3164C1.67578 14.2461 1.5 13.1406 1.5 12C1.5 10.5781 1.77734 9.21875 2.33203 7.92188C2.88672 6.625 3.63281 5.50781 4.57031 4.57031C5.50781 3.63281 6.625 2.88672 7.92188 2.33203C9.21875 1.77734 10.5781 1.5 12 1.5C13.4219 1.5 14.7812 1.77734 16.0781 2.33203C17.375 2.88672 18.4922 3.63281 19.4297 4.57031C20.3672 5.50781 21.1133 6.625 21.668 7.92188C22.2227 9.21875 22.5 10.5781 22.5 12C22.5 13.4219 22.2227 14.7812 21.668 16.0781C21.1133 17.375 20.3672 18.4961 19.4297 19.4414C18.4922 20.3867 17.375 21.1367 16.0781 21.6914C14.7812 22.2461 13.4219 22.5234 12 22.5234ZM17.25 11.25H12.75V6.75C12.75 6.54688 12.6758 6.37109 12.5273 6.22266C12.3789 6.07422 12.2031 6 12 6C11.7969 6 11.6211 6.07422 11.4727 6.22266C11.3242 6.37109 11.25 6.54688 11.25 6.75V11.25H6.75C6.54688 11.25 6.37109 11.3242 6.22266 11.4727C6.07422 11.6211 6 11.7969 6 12C6 12.2031 6.07422 12.3789 6.22266 12.5273C6.37109 12.6758 6.54688 12.75 6.75 12.75H11.25V17.25C11.25 17.4531 11.3242 17.6289 11.4727 17.7773C11.6211 17.9258 11.7969 18 12 18C12.2031 18 12.3789 17.9258 12.5273 17.7773C12.6758 17.6289 12.75 17.4531 12.75 17.25V12.75H17.25C17.4531 12.75 17.6289 12.6758 17.7773 12.5273C17.9258 12.3789 18 12.2031 18 12C18 11.7969 17.9258 11.6211 17.7773 11.4727C17.6289 11.3242 17.4531 11.25 17.25 11.25Z" fill="#330033"/>
</svg>
