<svg width="24" height="24" viewBox="0 0 24 24" fill="none" xmlns="http://www.w3.org/2000/svg">
<path d="M18.3047 14.2266C18.1172 14.1484 17.9258 14.1445 17.7305 14.2148C17.5352 14.2852 17.3984 14.4141 17.3203 14.6016L17.2148 14.8125L16.9219 15.2812L16.4062 15.9609L15.6562 16.6758L14.6719 17.3438L13.4414 17.8242L11.9531 18.0234C11.9375 18.0234 11.9219 18.0273 11.9062 18.0352L11.8828 18.0469C11.4453 18.0469 11.0234 18 10.6172 17.9062C10.2109 17.8125 9.85156 17.6836 9.53906 17.5195C9.22656 17.3555 8.93359 17.1797 8.66016 16.9922C8.38672 16.8047 8.14453 16.5977 7.93359 16.3711C7.72266 16.1445 7.53906 15.9375 7.38281 15.75C7.22656 15.5625 7.09375 15.375 6.98438 15.1875C6.875 15 6.79688 14.8672 6.75 14.7891C6.70312 14.7109 6.67188 14.6484 6.65625 14.6016C6.5625 14.4141 6.42188 14.2852 6.23438 14.2148C6.04688 14.1445 5.85547 14.1523 5.66016 14.2383C5.46484 14.3242 5.33203 14.4609 5.26172 14.6484C5.19141 14.8359 5.20312 15.0312 5.29688 15.2344C5.3125 15.2812 5.33984 15.3438 5.37891 15.4219C5.41797 15.5 5.5 15.6367 5.625 15.832C5.75 16.0273 5.87891 16.2227 6.01172 16.418C6.14453 16.6133 6.32422 16.8359 6.55078 17.0859C6.77734 17.3359 7.01562 17.5703 7.26562 17.7891C7.51562 18.0078 7.80859 18.2266 8.14453 18.4453C8.48047 18.6641 8.83203 18.8516 9.19922 19.0078C9.56641 19.1641 9.98047 19.293 10.4414 19.3945C10.9023 19.4961 11.375 19.5469 11.8594 19.5469C11.875 19.5469 11.9062 19.5391 11.9531 19.5234C12.8438 19.5234 13.6875 19.3711 14.4844 19.0664C15.2812 18.7617 15.9141 18.4258 16.3828 18.0586C16.8516 17.6914 17.2773 17.2656 17.6602 16.7812C18.043 16.2969 18.293 15.9492 18.4102 15.7383C18.5273 15.5273 18.6172 15.3516 18.6797 15.2109C18.7266 15.1484 18.7539 15.0742 18.7617 14.9883C18.7695 14.9023 18.7617 14.8242 18.7383 14.7539C18.7148 14.6836 18.6875 14.6133 18.6562 14.543C18.625 14.4727 18.5781 14.4102 18.5156 14.3555C18.4531 14.3008 18.3828 14.2578 18.3047 14.2266ZM12 0C10.375 0 8.82031 0.316406 7.33594 0.949219C5.85156 1.58203 4.57422 2.43359 3.50391 3.50391C2.43359 4.57422 1.58203 5.85156 0.949219 7.33594C0.316406 8.82031 0 10.375 0 12C0 13.625 0.316406 15.1797 0.949219 16.6641C1.58203 18.1484 2.43359 19.4258 3.50391 20.4961C4.57422 21.5664 5.85156 22.418 7.33594 23.0508C8.82031 23.6836 10.375 24 12 24C13.625 24 15.1797 23.6836 16.6641 23.0508C18.1484 22.418 19.4258 21.5664 20.4961 20.4961C21.5664 19.4258 22.418 18.1484 23.0508 16.6641C23.6836 15.1797 24 13.625 24 12C24 10.375 23.6836 8.82031 23.0508 7.33594C22.418 5.85156 21.5664 4.57422 20.4961 3.50391C19.4258 2.43359 18.1484 1.58203 16.6641 0.949219C15.1797 0.316406 13.625 0 12 0ZM12 22.5C10.8594 22.5 9.75391 22.3242 8.68359 21.9727C7.61328 21.6211 6.64844 21.1211 5.78906 20.4727C4.92969 19.8242 4.17578 19.0703 3.52734 18.2109C2.87891 17.3516 2.37891 16.3867 2.02734 15.3164C1.67578 14.2461 1.5 13.1406 1.5 12C1.5 10.5781 1.77734 9.21875 2.33203 7.92188C2.88672 6.625 3.63281 5.50781 4.57031 4.57031C5.50781 3.63281 6.625 2.88672 7.92188 2.33203C9.21875 1.77734 10.5781 1.5 12 1.5C13.4219 1.5 14.7812 1.77734 16.0781 2.33203C17.375 2.88672 18.4922 3.63281 19.4297 4.57031C20.3672 5.50781 21.1133 6.625 21.668 7.92188C22.2227 9.21875 22.5 10.5781 22.5 12C22.5 13.4219 22.2227 14.7812 21.668 16.0781C21.1133 17.375 20.3672 18.4922 19.4297 19.4297C18.4922 20.3672 17.375 21.1133 16.0781 21.668C14.7812 22.2227 13.4219 22.5 12 22.5ZM8.25 11.25C8.65625 11.25 9.00391 11.1016 9.29297 10.8047C9.58203 10.5078 9.72656 10.1562 9.72656 9.75C9.72656 9.48438 9.66016 9.23438 9.52734 9C9.39453 8.76562 9.21484 8.58203 8.98828 8.44922C8.76172 8.31641 8.51562 8.25 8.25 8.25C7.82812 8.25 7.47266 8.39844 7.18359 8.69531C6.89453 8.99219 6.75 9.34375 6.75 9.75C6.75 10.3594 7.01562 10.8047 7.54688 11.0859C7.78125 11.1953 8.01562 11.25 8.25 11.25ZM15.75 11.25C15.8594 11.25 15.9688 11.2344 16.0781 11.2031C16.1875 11.1719 16.293 11.1328 16.3945 11.0859C16.4961 11.0391 16.5898 10.9805 16.6758 10.9102C16.7617 10.8398 16.8398 10.7617 16.9102 10.6758C16.9805 10.5898 17.0391 10.5 17.0859 10.4062C17.1328 10.3125 17.168 10.207 17.1914 10.0898C17.2148 9.97266 17.2266 9.85938 17.2266 9.75C17.2266 9.34375 17.082 8.99219 16.793 8.69531C16.5039 8.39844 16.1523 8.25 15.7383 8.25C15.3242 8.25 14.9727 8.39844 14.6836 8.69531C14.3945 8.99219 14.25 9.34375 14.25 9.75C14.25 10.1562 14.3945 10.5078 14.6836 10.8047C14.9727 11.1016 15.3281 11.25 15.75 11.25Z" fill="#ADADAD"/>
</svg>
