<svg width="24" height="24" viewBox="0 0 24 24" fill="none" xmlns="http://www.w3.org/2000/svg">
<path d="M22.5923 8.21755L15.8907 7.61275L13.2738 1.20476C12.803 0.0383561 11.1969 0.0383561 10.7261 1.20476L8.10918 7.62715L1.42149 8.21755C0.203027 8.31835 -0.295434 9.90235 0.632258 10.7376L5.7138 15.3168L4.19072 22.1136C3.9138 23.352 5.20149 24.3312 6.25379 23.6688L11.9999 20.0688L17.7461 23.6832C18.7984 24.3456 20.0861 23.3664 19.8092 22.128L18.2861 15.3168L23.3676 10.7376C24.2953 9.90235 23.8107 8.31835 22.5923 8.21755ZM11.9999 17.376L6.79379 20.6448L8.17841 14.4816L3.58149 10.3344L9.6461 9.78715L11.9999 3.98396L14.3676 9.80155L20.4323 10.3488L15.8353 14.496L17.2199 20.6592L11.9999 17.376Z" fill="#999900"/>
</svg>
