<svg width="19" height="18" viewBox="0 0 19 18" fill="none" xmlns="http://www.w3.org/2000/svg">
<path d="M17.6042 5.77009L12.6333 5.3297L10.6922 0.663678C10.343 -0.185642 9.1516 -0.185642 8.8024 0.663678L6.86127 5.34018L1.90062 5.77009C0.99682 5.84348 0.627081 6.99688 1.3152 7.60504L5.08448 10.9394L3.95472 15.8885C3.74931 16.7903 4.70447 17.5033 5.48503 17.021L9.74728 14.3996L14.0095 17.0314C14.7901 17.5138 15.7453 16.8008 15.5398 15.899L14.4101 10.9394L18.1794 7.60504C18.8675 6.99688 18.508 5.84348 17.6042 5.77009ZM9.74728 12.4388L5.88558 14.819L6.91263 10.3313L3.50282 7.31145L8.0013 6.913L9.74728 2.68737L11.5035 6.92348L16.002 7.32193L12.5922 10.3417L13.6193 14.8295L9.74728 12.4388Z" fill="#ADADAD"/>
</svg>
