<svg width="181" height="85" viewBox="0 0 181 85" fill="none" xmlns="http://www.w3.org/2000/svg">
<g id="&#208;&#187;&#208;&#190;&#208;&#179;&#208;&#190;">
<path id="FindMe" d="M9.024 16.472V29.672H26.4V32.744H9.024V47H5.472V13.4H28.512V16.472H9.024ZM34.6583 21.752H38.0663V47H34.6583V21.752ZM36.3863 16.232C35.6823 16.232 35.0903 15.992 34.6103 15.512C34.1303 15.032 33.8903 14.456 33.8903 13.784C33.8903 13.144 34.1303 12.584 34.6103 12.104C35.0903 11.624 35.6823 11.384 36.3863 11.384C37.0903 11.384 37.6823 11.624 38.1623 12.104C38.6423 12.552 38.8823 13.096 38.8823 13.736C38.8823 14.44 38.6423 15.032 38.1623 15.512C37.6823 15.992 37.0903 16.232 36.3863 16.232ZM60.4129 21.56C63.5809 21.56 66.0929 22.488 67.9489 24.344C69.8369 26.168 70.7809 28.84 70.7809 32.36V47H67.3729V32.696C67.3729 30.072 66.7169 28.072 65.4049 26.696C64.0929 25.32 62.2209 24.632 59.7889 24.632C57.0689 24.632 54.9089 25.448 53.3089 27.08C51.7409 28.68 50.9569 30.904 50.9569 33.752V47H47.5489V21.752H50.8129V26.408C51.7409 24.872 53.0209 23.688 54.6529 22.856C56.3169 21.992 58.2369 21.56 60.4129 21.56ZM103.167 11.384V47H99.903V42.008C98.879 43.704 97.519 45 95.823 45.896C94.159 46.792 92.271 47.24 90.159 47.24C87.791 47.24 85.647 46.696 83.727 45.608C81.807 44.52 80.303 43 79.215 41.048C78.127 39.096 77.583 36.872 77.583 34.376C77.583 31.88 78.127 29.656 79.215 27.704C80.303 25.752 81.807 24.248 83.727 23.192C85.647 22.104 87.791 21.56 90.159 21.56C92.207 21.56 94.047 21.992 95.679 22.856C97.343 23.688 98.703 24.92 99.759 26.552V11.384H103.167ZM90.447 44.216C92.207 44.216 93.791 43.816 95.199 43.016C96.639 42.184 97.759 41.016 98.559 39.512C99.391 38.008 99.807 36.296 99.807 34.376C99.807 32.456 99.391 30.744 98.559 29.24C97.759 27.736 96.639 26.584 95.199 25.784C93.791 24.952 92.207 24.536 90.447 24.536C88.655 24.536 87.039 24.952 85.599 25.784C84.191 26.584 83.071 27.736 82.239 29.24C81.439 30.744 81.039 32.456 81.039 34.376C81.039 36.296 81.439 38.008 82.239 39.512C83.071 41.016 84.191 42.184 85.599 43.016C87.039 43.816 88.655 44.216 90.447 44.216ZM148.274 13.4V47H144.866V20.12L131.666 42.728H129.986L116.786 20.264V47H113.378V13.4H116.306L130.898 38.312L145.346 13.4H148.274ZM180.486 35.432H159.366C159.558 38.056 160.566 40.184 162.39 41.816C164.214 43.416 166.518 44.216 169.302 44.216C170.87 44.216 172.31 43.944 173.622 43.4C174.934 42.824 176.07 41.992 177.03 40.904L178.95 43.112C177.83 44.456 176.422 45.48 174.726 46.184C173.062 46.888 171.222 47.24 169.206 47.24C166.614 47.24 164.31 46.696 162.294 45.608C160.31 44.488 158.758 42.952 157.638 41C156.518 39.048 155.958 36.84 155.958 34.376C155.958 31.912 156.486 29.704 157.542 27.752C158.63 25.8 160.102 24.28 161.958 23.192C163.846 22.104 165.958 21.56 168.294 21.56C170.63 21.56 172.726 22.104 174.582 23.192C176.438 24.28 177.894 25.8 178.95 27.752C180.006 29.672 180.534 31.88 180.534 34.376L180.486 35.432ZM168.294 24.488C165.862 24.488 163.814 25.272 162.15 26.84C160.518 28.376 159.59 30.392 159.366 32.888H177.27C177.046 30.392 176.102 28.376 174.438 26.84C172.806 25.272 170.758 24.488 168.294 24.488Z" fill="#CCCC33"/>
<path id="&#208;&#190;&#208;&#177;&#209;&#137;&#208;&#176;&#208;&#181;&#208;&#188;&#209;&#129;&#209;&#143; &#208;&#178;&#208;&#188;&#208;&#181;&#209;&#129;&#209;&#130;&#208;&#181;" d="M9.76 66.108C8.812 66.108 7.96 65.898 7.204 65.478C6.448 65.058 5.854 64.482 5.422 63.75C5.002 63.006 4.792 62.166 4.792 61.23C4.792 60.294 5.002 59.46 5.422 58.728C5.854 57.984 6.448 57.408 7.204 57C7.96 56.58 8.812 56.37 9.76 56.37C10.708 56.37 11.554 56.58 12.298 57C13.054 57.408 13.642 57.984 14.062 58.728C14.494 59.46 14.71 60.294 14.71 61.23C14.71 62.166 14.494 63.006 14.062 63.75C13.642 64.482 13.054 65.058 12.298 65.478C11.554 65.898 10.708 66.108 9.76 66.108ZM9.76 64.596C10.372 64.596 10.918 64.458 11.398 64.182C11.89 63.894 12.274 63.498 12.55 62.994C12.826 62.478 12.964 61.89 12.964 61.23C12.964 60.57 12.826 59.988 12.55 59.484C12.274 58.968 11.89 58.572 11.398 58.296C10.918 58.02 10.372 57.882 9.76 57.882C9.148 57.882 8.596 58.02 8.104 58.296C7.624 58.572 7.24 58.968 6.952 59.484C6.676 59.988 6.538 60.57 6.538 61.23C6.538 61.89 6.676 62.478 6.952 62.994C7.24 63.498 7.624 63.894 8.104 64.182C8.596 64.458 9.148 64.596 9.76 64.596ZM22.0653 56.784C22.9533 56.784 23.7453 56.982 24.4413 57.378C25.1373 57.774 25.6773 58.326 26.0613 59.034C26.4573 59.73 26.6553 60.528 26.6553 61.428C26.6553 62.352 26.4453 63.174 26.0253 63.894C25.6173 64.602 25.0353 65.154 24.2793 65.55C23.5353 65.946 22.6833 66.144 21.7233 66.144C20.1033 66.144 18.8493 65.592 17.9613 64.488C17.0853 63.372 16.6473 61.806 16.6473 59.79C16.6473 57.834 17.0493 56.304 17.8533 55.2C18.6573 54.084 19.8873 53.346 21.5433 52.986L25.8993 52.014L26.1513 53.598L22.1373 54.462C20.8893 54.738 19.9593 55.206 19.3473 55.866C18.7353 56.526 18.3873 57.474 18.3033 58.71C18.7113 58.098 19.2393 57.624 19.8873 57.288C20.5353 56.952 21.2613 56.784 22.0653 56.784ZM21.7593 64.704C22.3713 64.704 22.9113 64.566 23.3793 64.29C23.8593 64.014 24.2313 63.636 24.4953 63.156C24.7593 62.664 24.8913 62.106 24.8913 61.482C24.8913 60.534 24.6033 59.772 24.0273 59.196C23.4513 58.62 22.6953 58.332 21.7593 58.332C20.8233 58.332 20.0613 58.62 19.4733 59.196C18.8973 59.772 18.6093 60.534 18.6093 61.482C18.6093 62.106 18.7413 62.664 19.0053 63.156C19.2813 63.636 19.6593 64.014 20.1393 64.29C20.6193 64.566 21.1593 64.704 21.7593 64.704ZM42.7132 56.46V66H29.1232V56.46H30.8512V64.488H35.0632V56.46H36.7912V64.488H40.9852V56.46H42.7132ZM44.1352 64.488V68.034H42.5152V66H40.9132V64.488H44.1352ZM49.4705 56.37C50.7905 56.37 51.7985 56.694 52.4945 57.342C53.2025 57.99 53.5565 58.956 53.5565 60.24V66H51.9185V64.74C51.6305 65.184 51.2165 65.526 50.6765 65.766C50.1485 65.994 49.5185 66.108 48.7865 66.108C47.7185 66.108 46.8605 65.85 46.2125 65.334C45.5765 64.818 45.2585 64.14 45.2585 63.3C45.2585 62.46 45.5645 61.788 46.1765 61.284C46.7885 60.768 47.7605 60.51 49.0925 60.51H51.8285V60.168C51.8285 59.424 51.6125 58.854 51.1805 58.458C50.7485 58.062 50.1125 57.864 49.2725 57.864C48.7085 57.864 48.1565 57.96 47.6165 58.152C47.0765 58.332 46.6205 58.578 46.2485 58.89L45.5285 57.594C46.0205 57.198 46.6085 56.898 47.2925 56.694C47.9765 56.478 48.7025 56.37 49.4705 56.37ZM49.0745 64.776C49.7345 64.776 50.3045 64.632 50.7845 64.344C51.2645 64.044 51.6125 63.624 51.8285 63.084V61.752H49.1645C47.7005 61.752 46.9685 62.244 46.9685 63.228C46.9685 63.708 47.1545 64.086 47.5265 64.362C47.8985 64.638 48.4145 64.776 49.0745 64.776ZM65.2901 61.284C65.2901 61.416 65.2781 61.59 65.2541 61.806H57.5141C57.6221 62.646 57.9881 63.324 58.6121 63.84C59.2481 64.344 60.0341 64.596 60.9701 64.596C62.1101 64.596 63.0281 64.212 63.7241 63.444L64.6781 64.56C64.2461 65.064 63.7061 65.448 63.0581 65.712C62.4221 65.976 61.7081 66.108 60.9161 66.108C59.9081 66.108 59.0141 65.904 58.2341 65.496C57.4541 65.076 56.8481 64.494 56.4161 63.75C55.9961 63.006 55.7861 62.166 55.7861 61.23C55.7861 60.306 55.9901 59.472 56.3981 58.728C56.8181 57.984 57.3881 57.408 58.1081 57C58.8401 56.58 59.6621 56.37 60.5741 56.37C61.4861 56.37 62.2961 56.58 63.0041 57C63.7241 57.408 64.2821 57.984 64.6781 58.728C65.0861 59.472 65.2901 60.324 65.2901 61.284ZM60.5741 57.828C59.7461 57.828 59.0501 58.08 58.4861 58.584C57.9341 59.088 57.6101 59.748 57.5141 60.564H63.6341C63.5381 59.76 63.2081 59.106 62.6441 58.602C62.0921 58.086 61.4021 57.828 60.5741 57.828ZM78.9689 56.46V66H77.4029V59.034L73.8389 64.92H73.0829L69.5549 59.016V66H67.9709V56.46H69.7529L73.4969 62.904L77.3489 56.46H78.9689ZM86.4902 66.108C85.5182 66.108 84.6482 65.898 83.8802 65.478C83.1242 65.058 82.5302 64.482 82.0982 63.75C81.6662 63.006 81.4502 62.166 81.4502 61.23C81.4502 60.294 81.6662 59.46 82.0982 58.728C82.5302 57.984 83.1242 57.408 83.8802 57C84.6482 56.58 85.5182 56.37 86.4902 56.37C87.3542 56.37 88.1222 56.544 88.7942 56.892C89.4782 57.24 90.0062 57.744 90.3782 58.404L89.0642 59.25C88.7642 58.794 88.3922 58.452 87.9482 58.224C87.5042 57.996 87.0122 57.882 86.4722 57.882C85.8482 57.882 85.2842 58.02 84.7802 58.296C84.2882 58.572 83.8982 58.968 83.6102 59.484C83.3342 59.988 83.1962 60.57 83.1962 61.23C83.1962 61.902 83.3342 62.496 83.6102 63.012C83.8982 63.516 84.2882 63.906 84.7802 64.182C85.2842 64.458 85.8482 64.596 86.4722 64.596C87.0122 64.596 87.5042 64.482 87.9482 64.254C88.3922 64.026 88.7642 63.684 89.0642 63.228L90.3782 64.056C90.0062 64.716 89.4782 65.226 88.7942 65.586C88.1222 65.934 87.3542 66.108 86.4902 66.108ZM99.9666 56.46V66H98.4186V62.976H95.6466H95.4486L93.3606 66H91.5066L93.8286 62.742C93.1086 62.526 92.5566 62.172 92.1726 61.68C91.7886 61.176 91.5966 60.552 91.5966 59.808C91.5966 58.716 91.9686 57.888 92.7126 57.324C93.4566 56.748 94.4826 56.46 95.7906 56.46H99.9666ZM93.3606 59.862C93.3606 60.498 93.5586 60.972 93.9546 61.284C94.3626 61.584 94.9686 61.734 95.7726 61.734H98.4186V57.972H95.8446C94.1886 57.972 93.3606 58.602 93.3606 59.862ZM114.67 61.05C115.906 61.362 116.524 62.136 116.524 63.372C116.524 64.212 116.206 64.86 115.57 65.316C114.946 65.772 114.01 66 112.762 66H108.172V56.46H112.6C113.728 56.46 114.61 56.676 115.246 57.108C115.882 57.528 116.2 58.128 116.2 58.908C116.2 59.412 116.062 59.85 115.786 60.222C115.522 60.582 115.15 60.858 114.67 61.05ZM109.864 60.564H112.456C113.116 60.564 113.614 60.444 113.95 60.204C114.298 59.964 114.472 59.616 114.472 59.16C114.472 58.248 113.8 57.792 112.456 57.792H109.864V60.564ZM112.636 64.668C113.356 64.668 113.896 64.554 114.256 64.326C114.616 64.098 114.796 63.744 114.796 63.264C114.796 62.772 114.628 62.406 114.292 62.166C113.968 61.926 113.452 61.806 112.744 61.806H109.864V64.668H112.636ZM130.227 56.46V66H128.661V59.034L125.097 64.92H124.341L120.813 59.016V66H119.229V56.46H121.011L124.755 62.904L128.607 56.46H130.227ZM142.212 61.284C142.212 61.416 142.2 61.59 142.176 61.806H134.436C134.544 62.646 134.91 63.324 135.534 63.84C136.17 64.344 136.956 64.596 137.892 64.596C139.032 64.596 139.95 64.212 140.646 63.444L141.6 64.56C141.168 65.064 140.628 65.448 139.98 65.712C139.344 65.976 138.63 66.108 137.838 66.108C136.83 66.108 135.936 65.904 135.156 65.496C134.376 65.076 133.77 64.494 133.338 63.75C132.918 63.006 132.708 62.166 132.708 61.23C132.708 60.306 132.912 59.472 133.32 58.728C133.74 57.984 134.31 57.408 135.03 57C135.762 56.58 136.584 56.37 137.496 56.37C138.408 56.37 139.218 56.58 139.926 57C140.646 57.408 141.204 57.984 141.6 58.728C142.008 59.472 142.212 60.324 142.212 61.284ZM137.496 57.828C136.668 57.828 135.972 58.08 135.408 58.584C134.856 59.088 134.532 59.748 134.436 60.564H140.556C140.46 59.76 140.13 59.106 139.566 58.602C139.014 58.086 138.324 57.828 137.496 57.828ZM149.051 66.108C148.079 66.108 147.209 65.898 146.441 65.478C145.685 65.058 145.091 64.482 144.659 63.75C144.227 63.006 144.011 62.166 144.011 61.23C144.011 60.294 144.227 59.46 144.659 58.728C145.091 57.984 145.685 57.408 146.441 57C147.209 56.58 148.079 56.37 149.051 56.37C149.915 56.37 150.683 56.544 151.355 56.892C152.039 57.24 152.567 57.744 152.939 58.404L151.625 59.25C151.325 58.794 150.953 58.452 150.509 58.224C150.065 57.996 149.573 57.882 149.033 57.882C148.409 57.882 147.845 58.02 147.341 58.296C146.849 58.572 146.459 58.968 146.171 59.484C145.895 59.988 145.757 60.57 145.757 61.23C145.757 61.902 145.895 62.496 146.171 63.012C146.459 63.516 146.849 63.906 147.341 64.182C147.845 64.458 148.409 64.596 149.033 64.596C149.573 64.596 150.065 64.482 150.509 64.254C150.953 64.026 151.325 63.684 151.625 63.228L152.939 64.056C152.567 64.716 152.039 65.226 151.355 65.586C150.683 65.934 149.915 66.108 149.051 66.108ZM162.163 57.972H158.671V66H156.943V57.972H153.451V56.46H162.163V57.972ZM172.13 61.284C172.13 61.416 172.118 61.59 172.094 61.806H164.354C164.462 62.646 164.828 63.324 165.452 63.84C166.088 64.344 166.874 64.596 167.81 64.596C168.95 64.596 169.868 64.212 170.564 63.444L171.518 64.56C171.086 65.064 170.546 65.448 169.898 65.712C169.262 65.976 168.548 66.108 167.756 66.108C166.748 66.108 165.854 65.904 165.074 65.496C164.294 65.076 163.688 64.494 163.256 63.75C162.836 63.006 162.626 62.166 162.626 61.23C162.626 60.306 162.83 59.472 163.238 58.728C163.658 57.984 164.228 57.408 164.948 57C165.68 56.58 166.502 56.37 167.414 56.37C168.326 56.37 169.136 56.58 169.844 57C170.564 57.408 171.122 57.984 171.518 58.728C171.926 59.472 172.13 60.324 172.13 61.284ZM167.414 57.828C166.586 57.828 165.89 58.08 165.326 58.584C164.774 59.088 164.45 59.748 164.354 60.564H170.474C170.378 59.76 170.048 59.106 169.484 58.602C168.932 58.086 168.242 57.828 167.414 57.828Z" fill="white"/>
</g>
</svg>
