<svg width="25" height="25" viewBox="0 0 25 25" fill="none" xmlns="http://www.w3.org/2000/svg">
<path d="M15.8929 14.5834H15.1035L14.8237 14.3021C15.4482 13.5458 15.9046 12.655 16.1602 11.6934C16.4159 10.7318 16.4645 9.72311 16.3026 8.73962C15.8329 5.84379 13.5148 3.53128 10.717 3.17712C9.73342 3.04739 8.73439 3.15396 7.79638 3.48867C6.85837 3.82337 6.00623 4.37735 5.30518 5.10819C4.60412 5.83904 4.07274 6.72739 3.75168 7.70527C3.43062 8.68315 3.32839 9.72464 3.45283 10.75C3.79256 13.6667 6.01078 16.0834 8.78856 16.573C9.73196 16.7418 10.6995 16.6911 11.6219 16.4246C12.5443 16.1581 13.3988 15.6823 14.1243 15.0313L14.3941 15.323V16.1459L18.6407 20.573C19.0504 21 19.7198 21 20.1295 20.573C20.5392 20.1459 20.5392 19.448 20.1295 19.0209L15.8929 14.5834ZM9.89767 14.5834C7.40966 14.5834 5.40127 12.4896 5.40127 9.89587C5.40127 7.30212 7.40966 5.20837 9.89767 5.20837C12.3857 5.20837 14.3941 7.30212 14.3941 9.89587C14.3941 12.4896 12.3857 14.5834 9.89767 14.5834Z" fill="#4F4F4F"/>
</svg>
